<?xml version="1.0" encoding="utf-8"?>
<!-- Generator: Adobe Illustrator 24.0.3, SVG Export Plug-In . SVG Version: 6.00 Build 0)  -->
<svg version="1.1" id="Calque_1" xmlns="http://www.w3.org/2000/svg" xmlns:xlink="http://www.w3.org/1999/xlink" x="0px" y="0px"
	 viewBox="0 0 595.28 371.1" style="enable-background:new 0 0 595.28 371.1;" xml:space="preserve">
<style type="text/css">
	.st0{fill:#EEB1A4;}
</style>
<g>
	<g>
		<path class="st0" d="M243.4,108.68c1.46-0.06,2.71,0.76,3.88,1.73c0.64,0.52,1.08,1.15,1.03,2.05c-0.05,0.96,0.04,1.93-0.08,2.87
			c-0.24,1.81-0.51,3.62-0.92,5.39c-0.29,1.25-0.47,2.49-0.44,3.77c0.01,0.63-0.06,1.28-0.21,1.89c-0.95,3.85-1.93,7.69-2.89,11.53
			c0.34,2.7-1.57,4.93-1.56,7.56c0.01,3.65-0.95,7.26-0.47,11.18c1.87-1.34,3.41-2.85,4.58-4.59c1.21-1.8,2.62-3.43,4.01-5.04
			c2.87-3.32,5.44-6.86,8.11-10.34c2.91-3.79,5.61-7.73,8.9-11.22c1.3-1.38,2.31-3.04,3.51-4.52c1.91-2.37,4.07-4.48,6.39-6.44
			c1.01-0.85,2.02-1.14,3.29-0.59c1.28,0.55,2.68,0.68,3.71,1.91c0.58,0.69,1.92,0.6,2.75,1.3c-0.47,2.38-0.83,4.73-1.41,7.02
			c-0.35,1.37-1.17,2.59-1.46,4.03c-0.51,2.56-1.7,4.92-2.42,7.42c-0.86,2.95-1.94,5.84-2.29,8.93c-0.22,1.96-1.17,3.81-0.99,5.86
			c0.02,0.28-0.19,0.6-0.33,0.88c-0.4,0.81-0.57,1.57-0.21,2.51c0.27,0.71,0.11,1.57,0.15,2.37c0.03,0.71-0.06,1.47,0.82,2
			c0.9-0.04,1.64-0.63,2.32-1.3c3.76-3.68,7.39-7.47,10.74-11.54c3.04-3.69,5.9-7.51,8.8-11.31c0.71-0.93,1.12-1.93,1.33-3.01
			c0.6-3.07,1.73-5.95,2.96-8.8c1.35-3.15,3.01-6.12,5.1-8.88c2.33-3.08,5.03-5.76,8.14-8c2.33-1.67,4.78-3.17,7.19-4.74
			c0.26-0.17,0.58-0.39,0.86-0.37c1.34,0.11,2.64-0.38,4.01-0.19c1.29,0.18,2.38,0.47,3.47,1.3c1.38,1.05,3.14,1.48,4.66,2.38
			c1.93,1.13,3.81,2.31,5.58,3.67c0.44,0.34,0.88,0.67,1.51,0.72c3.36-4.44,6.43-9.05,8.5-14.29c1.25-3.17,2.9-6.19,4.37-9.29
			c0.51-1.07,1.15-2.08,1.31-3.32c0.09-0.68,0.51-1.33,0.83-1.97c1.75-3.49,3.45-7.01,5.29-10.45c1.65-3.09,3.48-6.08,5.22-9.12
			c0.55-0.96,1.07-1.94,1.61-2.91c1.44-2.58,3.06-5.04,5.1-7.23c1.23-0.42,2.14-0.11,2.68,1.18c0.37,0.88,0.83,1.72,1.29,2.65
			c-0.68,1-1.17,2.08-1.29,3.27c-0.14,1.45-0.98,2.65-1.39,4.01c-0.84,2.8-2.06,5.49-3.09,8.24c-0.75,2-1.12,4.12-1.85,6.14
			c-0.29,0.81-0.31,1.7-0.98,2.35c-0.29,0.28-0.44,0.64-0.53,1.05c-0.86,3.81-2.31,7.41-3.65,11.06c-1.07,2.89-2.4,5.69-3.22,8.69
			c-0.52,1.91-1.38,3.73-2.14,5.57c-1.32,3.22-2.71,6.44-3.62,9.79c-0.53,1.96-1.58,3.84-1.35,6c0.04,0.38-0.07,0.8-0.19,1.17
			c-0.95,2.87-1.22,5.92-2.38,8.73c-0.18,0.43-0.18,0.93-0.24,1.4c-0.04,0.4,0.11,0.89-0.07,1.18c-1.21,1.87-0.59,4.07-1.19,6.03
			c-0.22,0.72,0.07,1.23,0.46,1.75c0.64-0.06,0.92-0.6,1.3-0.97c2.75-2.66,5.33-5.5,7.85-8.38c1.46-1.68,2.77-3.49,4.22-5.18
			c3.89-4.55,7.95-8.95,12.23-13.14c1.83-1.79,3.64-3.59,5.42-5.43c1.96-2.03,4.28-3.57,6.69-4.97c1.47-0.85,3.07-0.85,4.6-0.13
			c0.99,0.47,1.91,1.08,3.01,1.71c-0.4,1.84-0.69,3.7-1.22,5.5c-0.7,2.34-1.6,4.61-2.17,6.99c-0.2,0.84-0.69,1.62-0.89,2.46
			c-0.47,1.92-1.09,3.79-1.08,5.84c0.01,1.3-0.59,2.62-0.93,3.92c-0.1,0.39-0.28,0.76-0.31,1.15c-0.3,3.2,0.33,6.33,0.83,9.46
			c0.03,0.16,0.06,0.32,0.11,0.47c0.95,2.56,2.68,3.45,5.28,2.63c2.38-0.75,4.56-1.92,6.59-3.36c4.11-2.9,7.96-6.11,11.41-9.79
			c0.91-0.97,1.39-2.01,1.77-3.29c0.58-1.96,1.26-3.94,1.73-5.9c0.56-2.33,1.37-4.56,2.06-6.83c0.95-3.14,2.46-6.03,4.08-8.86
			c0.43-0.76,0.95-1.47,1.31-2.28c1.14-2.55,3.06-4.39,5.33-5.92c0.99-0.67,1.9-1.4,2.56-2.46c0.5-0.79,1.23-1.49,1.98-2.07
			c3.74-2.91,6.82-6.49,10.2-9.76c2.36-2.27,4.94-4.22,7.66-6.05c2.07-1.39,4.28-2.41,6.42-3.61c1.51-0.85,3.15-1.16,4.77-1.44
			c2.42-0.42,4.95,0.83,7.19,1.6c1.35,0.46,4.89,4.48,5.28,4.76c1.59,1.13,2.09,2.89,2.7,4.79c0.22,0.68,0.49,1.36,0.85,1.97
			c0.7,1.2,2.43,7.5,2.03,8.78c-0.26,0.83-0.85,5.52-1.25,7c-0.08,0.31-1.52,7.1-2.23,8.19c-0.71,1.09-2.07,4.24-2.53,4.5
			c-0.26,0.15-8.66,12.68-8.95,13.05c-0.69,0.88-13.58,14.88-15.23,15.57c-0.49,0.21-7.96,7.99-24.11,8.36
			c-1.96,0.04-3.39-1.33-5.11-1.88c-3.49-1.12-5.56-3.56-6.76-6.88c-0.32-0.87-0.57-1.77-0.82-2.57c-0.52-0.13-0.75,0.11-0.98,0.32
			c-2.24,2.03-4.93,3.43-7.31,5.26c-0.81,0.62-1.9,0.65-2.82,1.21c-1.7,1.03-3.67,1.59-5.61,1.96c-2.53,0.48-4.91-0.13-6.88-1.93
			c-0.47-0.43-0.9-0.97-1.45-1.24c-3.79-1.85-5.22-5.18-5.78-9.05c-0.32-2.19-0.34-4.4,0.24-6.58c0.12-0.45,0.18-0.95,0.14-1.42
			c-0.12-1.31,0.24-2.52,0.57-3.76c0.53-1.99,0.97-4.03,1.26-6.03c0.22-1.53,1.16-2.81,1.11-4.35l-0.13-0.11
			c-1.6,1.44-3.22,2.85-4.46,4.64c-0.22,0.32-0.49,0.68-0.82,0.86c-1.27,0.68-2.12,1.67-2.42,3.1c-0.1,0.5-0.46,0.84-0.82,1.15
			c-3.15,2.85-5.36,6.53-8.37,9.5c-0.5,0.49-1,1-1.52,1.49c-0.35,0.33-0.79,0.61-1.02,1.01c-0.79,1.36-1.58,2.67-3.01,3.51
			c-1.31,0.78-1.63,2.57-3.1,3.26c-0.59,1.54-1.78,2.37-3.29,2.83c-1.21,2.18-3.58,2.7-5.52,3.82c-0.91,0.52-1.79,0.54-2.69-0.06
			c-1.62-1.08-3.45-1.8-5.35-1.89c-3.08-0.14-4.51-2.09-5.46-4.55c-0.71-1.85-1.01-3.85-0.99-5.86c0.02-2.16,0-4.31,0-6.42
			c-0.65-0.26-0.77,0.16-0.97,0.48c-1.55,2.4-2.98,4.85-4.27,7.4c-0.6,1.19-1.47,2.27-2.31,3.31c-1.51,1.86-2.55,4.02-3.9,5.98
			c-0.96,1.4-2.2,2.5-3.25,3.78c-1.46,1.78-2.83,3.67-4.58,5.21c-0.24,0.21-0.52,0.41-0.67,0.68c-1.61,2.82-4.58,3.61-7.28,4.6
			c-1.97,0.72-3.98-0.17-5.5-1.58c-1.02-0.95-2.08-1.66-3.42-2.06c-1.45-0.43-2.37-1.64-3.1-2.84c-1.11-1.83-1.95-3.82-2.09-6.02
			c-0.03-0.42-0.19-0.77-0.6-0.97c-0.41,0.08-0.69,0.39-0.92,0.7c-1.45,1.97-2.77,4.05-4.5,5.81c-0.34,0.35-0.56,0.75-0.65,1.25
			c-0.06,0.29-0.21,0.71-0.44,0.81c-2,0.85-2.67,3.1-4.51,4.15c-0.78,0.44-1.44,1.22-2.14,1.86c-1.89,1.75-4.06,3.1-6.82,2.88
			c-0.47-0.04-0.98-0.06-1.39-0.25c-1.88-0.86-3.77-1.72-5.59-2.69c-2.97-1.59-4.09-4.46-4.41-7.52c-0.27-2.59-0.09-5.22,0.27-7.86
			c0.36-2.69,0.79-5.34,1.54-7.94c0.06-0.21-0.04-0.46-0.06-0.72c-1.66,1.17-2.82,2.63-3.84,4.38c-0.89,1.53-1.91,3.14-3.56,4.11
			c-0.4,0.23-0.91,0.63-0.97,1.01c-0.25,1.66-1.57,2.54-2.51,3.68c-2.08,2.52-4.07,5.13-6.36,7.44c-1.55,1.57-3.03,3.26-4.76,4.63
			c-1.57,1.24-3.34,2.11-5.35,2.54c-0.76,0.16-1.39,0.19-2.06-0.16c-0.57-0.29-1.15-0.57-1.73-0.81c-1.46-0.61-2.88-1.27-4.43-1.68
			c-2.33-0.63-3.74-2.3-4.5-4.54c-0.21-0.62-0.12-1.26-0.17-1.9c-0.09-1.34-0.08-2.67-0.26-4.02c-0.18-1.43,0.14-2.99,0.32-4.48
			c0.25-2.04,0.68-4.07,1.15-6.08c0.81-3.48,1.71-6.93,2.56-10.4c0.03-0.13-0.09-0.29-0.22-0.67c-0.73,1.28-1.38,2.41-2.02,3.55
			c-0.59,1.04-1.18,2.08-1.75,3.13c-0.26,0.49-0.68,1.03-0.64,1.51c0.1,1.36-0.71,2.29-1.38,3.22c-1.97,2.72-3.48,5.71-5.39,8.46
			c-1.86,2.68-3.64,5.41-5.96,7.73c-0.62,0.62-1.16,1.32-1.73,1.99c-0.26,0.3-0.45,0.7-0.78,0.88c-1.75,0.98-3.17,2.41-4.8,3.55
			c-2.88,2.02-5.77,1.98-8.69,0.07c-1.06-0.69-2.09-1.42-3.35-1.79c-1.87-0.55-2.67-2.28-3.38-3.83c-1.99-4.38-2.28-9.1-1.96-13.8
			c0.12-1.81,0.24-3.64,0.38-5.46c0.19-2.46,0.64-4.89,1.2-7.28c0.88-3.79,1.8-7.58,2.81-11.34c0.87-3.22,1.89-6.41,2.85-9.61
			c0.2-0.66,0.38-1.33,0.62-2.14c-1.12-0.05-2.04-0.08-2.95,0.35c-1.37,0.66-2.78,1.16-4.35,1.17c-0.62,0-1.26,0.22-1.85,0.43
			c-3.4,1.21-6.92,0.96-10.42,0.92c-0.8-0.01-1.55-0.13-2.27-0.62c-0.72-0.5-1.6-0.7-2.48-0.81c-2.4-0.3-3.56-0.88-5.57-2.79
			c0.13-0.67,0.66-0.6,1.12-0.58c2.75,0.16,4.58-0.99,6.07-3.39c1.31-2.11,2.35-4.35,3.34-6.57c0.92-2.07,1.42-4.35,1.87-6.62
			c0.33-1.65,0.65-3.31,0.61-4.96c-0.1-4.42,0.1-8.93-2.21-12.99c-0.08-0.14-0.22-0.28-0.22-0.42c-0.05-3.53-3.15-5.35-4.59-8.11
			c-0.42-0.8-1.37-1.31-2.07-1.96c-1.31-1.21-2.9-1.27-4.5-0.98c-1.25,0.23-2.58,0.46-3.64,1.08c-2.25,1.32-4.84,1.91-6.94,3.65
			c-1.39,1.16-2.99,2.11-4.21,3.49c-2.53,2.84-5.09,5.62-7.21,8.83c-1.59,2.39-3.01,4.87-4.58,7.27c-0.79,1.22-1.25,2.58-1.78,3.91
			c-0.86,2.14-1.97,4.18-2.36,6.49c-0.07,0.38-0.37,0.76-0.35,1.12c0.15,3.43-1.42,6.64-1.18,10.11c0.24,3.5,0.08,7.03,0.11,10.55
			c0.02,1.91,0.69,3.77,0.49,5.7c1.36,2.48,1.31,5.35,2.23,7.97c0.92,2.61,1.41,5.38,2.16,8.05c0.37,1.3,0.9,2.55,1.38,3.82
			c1.44,3.86,2.74,7.79,4.39,11.56c1.13,2.56,2.09,5.16,2.87,7.83c0.75,2.59,1.49,5.18,2.24,7.76c0.13,0.46,0.25,0.92,0.39,1.37
			c0.8,2.55,1.04,2.69,3.77,2.15c1.65-0.33,3.23,0.2,4.63,0.81c2.15,0.93,4.38,1.41,6.61,1.98c0.71,0.18,1.39,0.41,1.96,0.84
			c2.15,1.65,4.44,3.09,6.5,4.88c1.7,1.48,3.45,2.86,4.5,4.86c0.96,1.83,1.76,3.74,2.59,5.63c0.5,1.15,1.15,2.22,1.34,3.55
			c0.18,1.28,0.12,2.44,0,3.71c-0.22,2.2-0.14,4.42-1.34,6.4c-0.11,0.19-0.11,0.46-0.13,0.7c-0.23,2.79-1.22,3.07-3.68,3.49
			c-0.54,0.09-1.12,0-1.67-0.02c-0.39-0.02-0.8,0.04-1.32-0.42c-0.28-1.96-0.19-4.11-0.01-6.23c0.06-0.72,0.06-1.36-0.05-2.08
			c-0.15-0.93-0.13-1.92-0.06-2.87c0.12-1.56-0.27-2.99-0.79-4.43c-0.68-1.86-1.73-3.57-2.2-5.54c-0.18-0.73-0.74-1.42-1.25-2.02
			c-1.3-1.52-2.79-2.89-4.47-3.94c-1.64-1.02-3.58-1.49-5.51-1.18c-1.48,0.24-3.02,0.26-4.43,0.88c-0.36,0.16-0.71,0.35-1.14,0.21
			c-0.94-0.3-1.23,0.47-1.63,1.01c0.24,2.63,0.76,5.18,0.82,7.81c0.07,3.41-0.19,6.82-0.04,10.23c0.05,1.15-0.31,2.22-0.55,3.28
			c-0.97,4.25-1.76,8.55-3.29,12.65c-1.06,2.83-2.13,5.73-4.06,8.02c-2.55,3.03-4.85,6.33-8,8.81c-2.24,1.77-4.55,3.47-7.45,4.14
			c-1.22,0.28-2.4,0.75-3.62,1.08c-4.34,1.16-8.67,0.89-13.04,0.4c-1.5-0.17-3.03-0.03-4.76-0.03c-0.73,1.82-1.53,3.69-2.25,5.59
			c-0.87,2.31-1.98,4.52-2.62,6.92c-0.84,3.14-2.01,6.23-2.48,9.42c-0.49,3.36-0.98,19.25-0.67,21.28c0.39,2.53,1.35,4.88,2.42,7.2
			c0.86,1.85,2.03,3.44,3.58,4.74c2.11,1.77,4.48,2.99,7.28,3.27c0.91,0.09,1.72-0.28,2.59-0.39c3.51-0.47,6.74-1.76,9.93-3.27
			c6.68-3.16,12.5-7.64,18.4-11.98c1.41-1.03,12.79-11.14,13.42-11.86c0.57-0.66,5.48-6.23,7.58-8.18c1.67-1.54,3.02-3.46,4.63-5.11
			c0.37-0.29,3.48-3.79,3.82-4.38c0.32-0.55,5.08-5.7,5.12-6.46c0.02-0.33,1.6-2.05,1.94-2.58c0.81-1.25,1.79-2.4,2.52-3.7
			c1.19-2.1,2.94-3.76,4.34-5.69c1.03-1.41,2.17-2.73,3.25-4.09c0.2-0.25,0.49-0.48,0.56-0.77c0.48-1.95,1.85-3.32,3.1-4.74
			c1.74-1.97,2.39-4.45,3.29-6.8c0.33-0.87,0.6-1.8,0.95-2.68c1.24-3.1,2.45-6.2,3.68-9.3c1.37-3.46,2.67-6.95,4.25-10.32
			c0.44-0.93,0.95-1.84,1.7-2.57c0.62-0.28,1.27-0.12,1.9-0.19c1.77-0.18,3.2,0.34,4.52,1.63c0.76,0.74,1.05,1.55,1.32,2.44
			c0.28,0.94-0.22,1.62-0.7,2.4c-0.7,1.14-1.25,2.41-1.67,3.69c-0.86,2.61-2.54,4.97-2.47,7.88c0,0.16-0.02,0.33-0.09,0.46
			c-1.03,1.91-1.45,4.02-2.12,6.05c-0.75,2.25-1.63,4.46-2.3,6.74c-0.4,1.36-1.12,2.57-1.33,4.03c-0.3,2.03-0.57,4.09-1.14,6.08
			c-0.19,0.64-0.27,1.44,0.35,2.02c0.5,0.22,0.73-0.18,1-0.43c3.21-3,6.29-6.12,9.23-9.38c2.72-3.02,5.24-6.21,7.85-9.32
			c1.49-1.77,2.9-3.61,4.49-5.28c3.24-3.4,6.32-6.95,9.61-10.3c1.78-1.82,3.48-3.73,5.28-5.55c0.51-0.52,0.92-1.07,1.06-1.83
			c0.08-0.45,0.28-0.92,0.79-1.18c1.16-0.17,7.21,2.17,7.61,2.42c1.7,1.07,1.88,1.41,1.41,3.32c-0.18,0.72-0.15,1.36-0.09,2.09
			c0.29,3.41,0.02,17.47-0.65,19.96c-0.02,0.08-0.13,12.12-0.11,14.52c0.01,1.2-0.04,2.38-0.48,3.53
			c-0.22,0.59-1.08,9.44-2.16,13.12c-0.38,1.31,0.07,2.72-0.47,4.02c-0.37,0.72-1.01,1.21-1.52,1.81c-0.93,1.07-2.07,2.05-2.69,3.29
			c-1.48,2.95,1.29,5.89,0.27,9.09c-0.49,1.54-1.1,5.02-2.3,6.41c-1.28-0.63-7.66-1.89-8.99-1.89c-1.11,0-1.8-0.11-2.91-0.11
			c-0.58,0-2.77,0.6-3.17,0.15c6.9-6.71,9.47-26.05,9.64-27.11c0.58-3.6,3.45-25.07,3.68-26.78c0.28-2.05,0.6-4.08,0.61-6.17
			c0.01-1.33,0.53-2.64,0.5-4.01c-0.01-0.37,0.12-0.77-0.29-1.27c-0.73,1.2-1.91,1.85-2.88,2.76c-0.17,0.16-0.44,0.28-0.52,0.47
			c-0.79,1.91-2.48,3.08-3.77,4.55c-1.31,1.5-2.57,3.05-3.85,4.56c-2.21,2.61-10.71,11.91-12.09,13.79
			c-0.33,0.45-0.79,0.77-1.27,1.08c-0.46,0.3-5.21,4.74-7.21,6.54c-0.23,0.21-0.53,0.42-0.82,0.47c-3.05,0.46-6.04,0.49-8.71-1.39
			c-0.38-0.27-4.45-3.79-4.8-4.44c-0.69-1.26-1.28-2.56-1.52-3.93c-0.69-0.22-1.1,0.16-1.19,0.6c-0.17,0.85-2.62,3.89-2.76,5.18
			c-0.1,0.89-2.01,3.02-2.21,3.46c-1.15,2.55-2.63,4.89-4.65,6.84c-0.23,0.23-0.45,0.41-0.54,0.73c-0.45,1.6-1.64,2.73-2.64,3.94
			c-1.05,1.29-1.87,2.79-3.22,3.84c-0.18,0.14-2.5,3.52-3.81,4.77c-0.35,0.33-2.8,3.91-4.1,5.11c-1.22,1.12-3.89,4.5-4.26,4.8
			c-0.62,0.5-1.31,0.99-1.72,1.65c-0.75,1.21-7.12,6.56-9.08,7.81c-1.34,0.86-2.39,2.08-3.68,3.03
			c-5.42,3.93-10.77,7.94-16.85,10.84c-1.79,0.86-3.46,1.92-5.29,2.74c-3.09,1.39-6.3,2.32-9.57,2.88
			c-2.81,0.48-5.72,0.53-8.54-0.33c-2.28-0.7-4.63-1.19-6.86-2.02c-2.39-0.89-4.67-2.03-6.57-3.82c-2.1-1.98-4.1-3.99-5.28-6.71
			c-1.7-3.92-3.09-7.94-3.92-12.13c-1.43-7.28,3.07-26.07,3.54-27.99c0.96-3.96,2.58-7.66,4.22-11.35c0.16-0.36,0.24-0.77,0.42-1.12
			c0.68-1.32,0.42-2.34-0.67-3.4c-1.9-1.85-2.88-4.37-4.47-6.47c-0.13-1.58-1.53-2.81-1.24-4.52c0.02-0.14-0.05-0.32-0.12-0.46
			c-1.4-2.67-1.59-5.67-1.95-8.53c-0.34-2.77-0.48-5.65,0.02-8.51c0.25-1.42,0.63-2.85,0.35-4.42c-0.22-1.24,0.41-2.62,0.57-3.95
			c0.18-1.49,0.84-2.89,0.78-4.44c-0.02-0.37,0.21-0.75,0.35-1.13c0.79-2.24,1.48-4.51,2.13-6.8c0.58-2.02,1.45-4.04,2.58-5.81
			c1.15-1.8,1.86-3.8,3-5.59c1.06-1.66,2.07-3.34,3.29-4.94c0.89,0.67,1.02,1.35,0.67,2.32c-1.1,3.06-2.08,6.16-2.59,9.38
			c-0.06,0.4-0.11,0.78-0.35,1.12c-1.18,1.74-1.56,3.78-2.15,5.75c-0.39,1.3-0.99,2.54-1.25,3.86c-0.59,3.04-1,6.11-1.55,9.15
			c-0.76,4.2-0.38,8.43-0.39,12.66c0,0.55,0.14,1.1,0.2,1.65c0.15,1.39,0.58,2.71,0.48,4.19c-0.09,1.25,0.57,2.62,1.12,3.83
			c1.01,2.22,2.17,4.38,3.28,6.55c0.14,0.27,0.27,0.58,0.84,0.68c1.08-1.98,2.7-3.72,3.32-6.06c0.12-0.44,0.42-0.86,0.72-1.23
			c1.64-1.97,2.61-4.35,4-6.47c1.43-2.19,2.83-4.4,4.32-6.54c3.31-4.77,7.35-8.99,10.64-13.78c0.28-0.41,0.68-0.65,1.07-0.94
			c0.51-0.38,1.05-0.78,1.4-1.29c1.54-2.3,3.86-3.78,5.8-5.65c2.87-2.77,6.02-5.19,9.26-7.48c0.97-0.69,1.97-1.34,2.98-1.99
			c0.67-0.43,1.42-0.74,1.82-1.52c-0.25-2.12-1.33-4-1.83-6.06c-0.95-3.85-1.73-7.76-2.96-11.52c-0.55-1.68-0.55-3.63-1.86-5.05
			c-0.35-0.38-0.26-0.91-0.43-1.34c-0.39-1.03-0.27-2.23-1.08-3.12c-0.31-0.34-0.15-0.74-0.02-1.13c0.11-0.33-1.32-2.57-1.61-3.49
			c-1.71-5.37-3.39-10.74-4.97-16.15c-0.53-1.81-0.8-3.71-1.13-5.58c-0.41-2.33-0.85-4.66-1.11-7.01c-0.19-1.74-0.03-3.51-0.19-5.26
			c-0.34-3.67,0.09-7.31,0.67-10.88c0.62-3.83,1.71-7.58,3.14-11.23c1.32-3.35,2.94-6.55,4.87-9.56c2.26-3.54,4.65-7,7.34-10.27
			c2.08-2.54,4.33-4.9,6.77-6.99c2.75-2.36,5.86-4.41,9.46-5.33c1.28-0.33,2.72-0.33,4.04,0.07c0.87,0.26,1.72,0.28,2.6,0.33
			c5.54,0.3,10.43,2.11,14.24,6.3c1.18,1.29,2.28,2.66,3.45,3.96c0.93,1.04,2.42,5.02,2.99,5.83c0.13,0.18,0.55,3.39,0.98,4.72
			c0.07,0.23,0.97,4.56,0.89,6.58c-0.06,1.6-0.38,3.16-0.54,4.74c-0.32,3.18-1.52,6.14-2.37,9.19c-0.3,1.09-0.85,2.07-1.46,3
			c-0.48,0.73-0.71,1.52-0.88,2.57c5.58-1.75,10.93-3.43,16.45-5.16c0.81-2.32,1.84-4.73,2.87-7.11c1.42-3.29,2.31-6.78,4.01-9.96
			c0.64-1.2,1.42-2.07,2.74-2.65c1.12,0.49,2.38,0.99,2.8,2.29c0.45,1.39,1.04,2.83,0.42,4.37c-0.45,1.12-0.61,2.29-0.63,3.51
			c-0.01,0.78-0.19,1.58-0.43,2.34c-0.36,1.14-0.54,2.31-0.69,3.71c1.9-0.27,3.67-0.88,5.48-1.24c1.87-0.38,3.73-0.82,5.6-1.2
			c1.79-0.36,3.59-0.67,5.39-1.03c1.87-0.38,3.72-0.92,5.6-1.15c1.89-0.23,3.66-1.13,5.59-1.02c0.17,0.61-0.26,0.72-0.56,0.93
			c-0.85,0.59-1.79,1.1-2.5,1.83c-1.89,1.95-4.4,2.8-6.72,3.98c-0.71,0.36-1.52,0.59-2.13,1.07c-1.05,0.82-2.21,1.22-3.48,1.46
			c-0.54,0.1-1.13,0.24-1.57,0.55c-2.8,1.99-6.2,2.39-9.32,3.53c-2.36,0.86-4.05,2.2-4.65,4.67c-0.48,2-1.2,3.92-1.44,6.02
			c-0.24,2.09-1.13,4.11-1.81,6.13c-0.21,0.61-0.46,1.18-0.42,1.84c0.03,0.57-0.04,1.14-0.34,1.62c-1.2,1.97-1.3,4.22-1.62,6.4
			c-0.06,0.39-0.13,0.79-0.25,1.16c-1.5,4.66-1.67,9.5-2.2,14.31c-0.32,2.87-0.28,5.72-0.37,8.58c-0.06,1.76,0.39,3.42,0.52,5.11
			c0.71,0.02,0.99-0.42,1.3-0.75c2.21-2.3,4.29-4.7,6.06-7.37c1.37-2.06,2.84-4.04,4.33-6.02c2.44-3.25,4.81-6.57,7-9.97
			c2.24-3.48,4.74-6.78,6.9-10.32c2.28-3.74,5.18-7.06,7.88-10.51c1.32-1.69,1.99-2.58,3.3-4.28 M480.2,85.52
			c-0.61-1.4-1.41-2.69-1.62-4.32c-0.2-1.53-0.88-3.21-2.21-4.12c-1.53-1.05-3.22-2.04-5.24-1.99c-0.56,0.01-1.17,0.1-1.67-0.09
			c-2.57-0.96-4.83-0.07-7.1,1.03c-2.43,1.18-4.21,3.38-6.84,4.23c-0.14,0.04-3.03,2.78-4.23,4.15c-0.94,1.08-1.96,2.13-3.09,3
			c-1.28,0.98-1.6,2.11-1.08,3.55c0.46,1.25,0.42,2.56,0.17,3.78c-0.84,4.15-2.08,8.17-4.56,11.69c-0.23,0.32-0.44,0.67-0.57,1.03
			c-0.81,2.17-2.06,4.11-3.24,6.08c-2.29,3.83-5.23,7.2-7.69,10.91c-0.86,1.3-1.42,2.8-1.44,4.16c-0.03,2.46-1.13,4.19-1.37,6.61
			c-1.66,5.61,5.12,9.8,6.58,9.28c3.37-1.19,6.63-2.62,9.6-4.68c2.03-1.4,4.08-2.77,6-4.31c2.35-1.9,4.67-3.85,6.89-5.89
			c1.34-1.24,2.45-2.72,3.68-4.07c1.18-1.29,2.6-2.38,3.49-3.92c0.43-0.75,1.41-1.56,1.9-2.35c2.6-2.07,10.52-15.55,10.96-16.18
			C478,102.42,480.79,86.87,480.2,85.52z M149.05,186.67c-1.94,2.46-4.59,3.41-6.54,5.28c-2.54,2.43-5.25,4.73-7.47,7.42
			c-2.37,2.87-4.66,5.83-6.64,9.03c-3.33,5.39-7.42,10.32-9.56,16.4c-1.1,1.21-4.81,10.61-5.81,12.39c1.27,0.16,2.31,0.19,3.3,0.43
			c1.35,0.32,2.72,0.33,4.05,0.16c3.97-0.5,15.68-6.69,17.06-8.49c1.68-2.19,6.84-9.98,7.87-11.51c0.17-0.26,0.38-0.55,0.4-0.84
			c0.14-1.79,3.89-12.23,3.74-12.86c-0.09-0.38,0.22-7.4,0.51-10.53c0.06-0.63,0.04-1.27-0.22-1.89
			C149.53,191.14,149.66,188.07,149.05,186.67z M337.56,108.89c-2,0.05-3.89-0.66-5.37,1.03c-0.18,0.2-2.95,0.97-3.91,1.53
			c-0.78,0.45-1.29,1.21-2.09,1.57c-1.78,0.81-2.96,2.35-4.43,3.53c-1.58,1.27-2.73,2.75-3.78,4.44c-1.01,1.62-2.16,3.14-2.54,5.06
			c-0.04,0.22-0.19,0.44-0.33,0.63c-1.22,1.63-1.76,3.56-2.33,5.47c-0.23,0.76-0.55,1.47-0.83,2.2c-0.57,1.47-1.54,2.87-1.6,4.47
			c-0.05,1.46-0.34,2.86-0.69,4.22c-0.55,2.14-0.52,4.29-0.28,6.42c0.19,1.75,0.41,3.62,2,4.93c1.23-0.6,2.22-1.37,3.17-2.23
			c2.13-1.94,3.98-4.15,5.76-6.38c1.25-1.56,2.7-2.91,3.92-4.5c1.95-2.53,3.56-5.28,5.34-7.91c2.81-4.15,5.46-8.41,8.18-12.62
			c0.88-1.36,1.55-2.76,1.3-4.47c-0.09-0.62-0.09-1.32,0.12-1.89c0.35-0.92,0.14-1.73-0.21-2.54
			C338.55,110.92,338.08,110,337.56,108.89z"/>
		<path class="st0" d="M374.52,273.28"/>
		<path class="st0" d="M374.52,274.37c0,0,1.9-3.35,2.29-4.34c2-3.78,6.73-15.53,7.18-16.96c0.69-2.18,3.46-11.4,3.76-13.94
			c0.1-0.86,3.02-14.41,3.18-15.35c0.42-2.5,5.28-29.55,5.43-30.34c0.37-1.95,0.55-3.93,1.13-5.85c0.39-1.3-0.1-1.84-1.31-2.73
			c-1.59-1.17-3.46-1.58-5.28-2.12c-1.07-0.32-2.11-0.11-2.71,0.96c-0.45,0.81-32.39,29.94-34.4,31.98
			c-2.02,2.06-4.23,3.89-6.42,5.75c-0.69,0.58-1.41,1.26-2.56,1.4c0-1.78,1.72-10.91,2.84-13.71c1.02-2.56,6.86-16.15,7.67-18.89
			c0.18-0.62,2.91-7.35,3.9-8.93c0.84-1.35,0.6-2.56-0.52-3.65c-0.96-0.94-4.3-2.86-5.82-2.31c-1.15,0.38-10.41,16.49-12.99,20.14
			c-0.63,0.89-11.69,14.51-12.05,15.57c-0.46,1.35-15.93,17.95-18.32,20.05c-0.53,0.47-1.13,0.87-2.06,0.87
			c-0.37-1.43-0.33-2.87-0.16-4.25c0.41-3.29,1.22-6.51,1.9-9.75c0.23-1.09,1.64-7.41,2.02-9.51c0.55-2.98,0.73-5.96,0.9-8.98
			c0.17-3.03-3.44-6.3-7.07-5.69c-5.27,0.87-9.24,4.08-12.99,7.55c-0.92,0.85-7.64,7.61-9.52,10.6c-0.48,0.76-1.19,1.47-2.11,1.88
			c-0.39-0.97,0.17-1.75,0.23-2.57c0.19-2.56,0.67-5.11,1.02-7.66c0.32-2.28,1.18-9.99,1.17-11.59c-0.02-2.72-1.7-4.45-4.39-4.52
			c-0.87-0.02-1.75,0.04-2.6-0.31c-0.43-0.18-0.93-0.25-1.38,0.11c-0.41,1.35-0.62,2.82-1.27,4.05c-1.65,3.11-2.56,6.52-4.18,9.63
			c-0.29,0.55-6.84,24.45-7.2,26.12c-0.17,0.77-1.3,5.23-0.98,6.53c0.41,1.65,0.17,3.33,0.58,4.88c2.34,1.7,6.65,2.53,9.37,1.94
			c1.35-0.29,2.61-0.87,3.55-1.73c1.66-1.52,3.44-2.98,4.19-5.31c0.33-1.03,5.73-10.43,6.08-10.96c1.94-2.96,7.18-11.38,8.31-12.31
			c1.11-0.92,6.91-6.97,8.89-8.89c1.17-1.13,2.6-1.31,3.84-2.08c0.33,0.64,0.21,1.11,0.08,1.57c-2.03,6.93-3.59,13.98-5.07,21.04
			c-0.41,1.96-0.68,3.93-0.49,5.93c0.26,2.77,1.01,5.3,3.88,6.57c0.5,0.22,0.92,0.63,1.4,0.9c2.54,1.43,5.04,1.66,7.65,0.04
			c1.42-0.88,2.84-1.77,4.29-2.57c0.95-0.53,2.93-2.96,3.37-3.25c1.3-0.86,5.76-6.6,6.52-7.62c0.75-1.01,1.44-2.07,2.34-2.96
			c0.41-0.41,0.76-0.82,0.97-1.34c0.51-1.26,1.14-2.41,2.31-3.2c0.48-0.32,0.69-0.85,0.82-1.42c0.09-0.4,0.33-0.72,0.96-0.58
			c0,1,0.01,2.03,0,3.07c-0.03,1.77,4.61,16.14,12.53,13.84c2.29-0.5,4.49-1.41,6.28-2.84c2.05-1.63,4.08-3.31,6-5.08
			c1.12-1.03,8.6-8.39,9.49-9.3c3.23-3.32,6.49-6.61,9.78-9.88c1.33-1.32,2.45-2.86,4.07-3.87c1.54-0.96,2.7-2.44,4.4-3.28
			c0.29,0.87-1.03,8.35-1.55,11.32c-0.65,3.67-1.17,7.36-2.01,11c-0.99,4.33-1.67,8.73-2.56,13.08c-0.58,2.87-1.22,5.73-1.97,8.55
			c-0.43,1.61-4.43,11.74-4.2,13.36c0.63-0.08,2.29-0.85,2.91-0.98c1.6-0.53,1.51,9.51,0.64,11.14c-1.11,2.09-2.24,4.18-3.39,6.25
			c-0.3,0.55-0.68,1.08-1.11,1.53c-1.54,1.59-3.08,3.18-4.81,4.57l-1.07,1.31L374.52,274.37z"/>
		<path class="st0" d="M500.11,224.12c-0.02,1.15-1.51,1.65-2.24,0.75c-1.78-2.16-2.56-4.78-3.69-7.24
			c-1.18-2.59-2.46-9.65-3.23-8.91c-0.56,0.54-0.96,1.2-1.29,1.88c-0.5,1.04-4.15,4.75-5.29,5.66c-1.54,1.23-8.26,6.22-10.16,7.49
			c-0.82,0.54-1.61,0.62-2.49,0.6c-0.39-0.01-0.8-0.11-1.16-0.24c-21.42-7.27-6.2-42.6-0.57-48.76c2.42-2.84,4.91-5.68,7.74-8.09
			c2.65-2.25,5.69-4.06,9.05-5.28c1.99-0.72,4.57-0.74,6.26-0.1c1.48,0.56,6.32,2.84,7.42,3.61c0.38,0.27,0.65,0.72,1.17,0.78
			c0.83-0.05,0.96-0.77,1.2-1.32c1.19-2.65,2.39-5.29,3.46-7.98c0.39-0.98,1.09-2.56,1.56-3.51c1.55-3.14,2.87-6.39,4.4-9.54
			c1.18-2.43,2.57-4.76,3.7-7.22c1.37-2.97,3.14-5.72,4.57-8.65c0.88-1.79,7.09-12.09,9.69-15.21c1.04-1.25,2.08-1.35,3.34-1.15
			c1.4,0.22,3.47,2.54,3.43,3.93c-0.03,1.09-0.3,2.21-0.67,3.24c-1.05,2.92-6.13,16.81-6.53,17.84c-1.25,3.27-8.84,20.55-9.59,22.21
			c-1.14,2.53-2.22,5.08-3.39,7.59c-1.04,2.23-8.74,19.47-9.95,22.16c-0.14,0.3-7.07,16.14-6.67,21.3
			c-0.02,3.68-0.02,7.35-0.03,11.03c0,1.04-0.05,2.08-0.06,3.11C500.11,224.11,500.11,224.11,500.11,224.12z M498.84,169.48
			c-18.34-8.04-32.65,36.37-32.64,40.28c-0.06,0.19-0.87,6.48,1.59,8.44c1,1.03,1.91,1.63,3.11,0.77c1.42-1.02,2.8-2.1,4.11-3.26
			c0.71-0.63,1.55-1.07,2.18-1.83c2.23-2.7,4.45-5.4,6.5-8.23c1.81-2.5,3.73-4.93,5.31-7.59c0.07-0.11,9.31-15.64,10.72-22.32
			c0.91-2.02,0.94-4.18-0.7-6.03C498.97,169.63,498.93,169.52,498.84,169.48z"/>
		<path class="st0" d="M415.97,237.82c-15.14,4.4-20.21-17.33-12.02-35c0.54-1.22,1.08-2.45,1.67-3.65
			c0.55-1.12,14.98-26.07,33.68-21.45c1.41,0.29,2.5,0.92,3.61,1.68c0.38,0.26,0.74,0.58,1.01,0.79c0.63-0.02,0.92-0.35,1.02-0.72
			c0.48-1.77,4.61-11.51,6.42-14.56c1.2-2.02,2.04-4.3,3.06-6.45c1.43-3.02,2.97-5.98,4.47-8.96c2.11-4.2,4.39-8.31,6.73-12.38
			c2.04-3.55,4.19-7.06,6.77-10.27c0.05-0.06,0.11-0.12,0.16-0.18c1.53-1.8,2.29-1.94,4.31-0.76c2.6,1.52,3.17,4.65,1.19,7.97
			c-1.18,1.98-7.58,20.62-8.71,23.82c-1.16,3.27-5.77,13.13-6.54,14.52c-0.72,1.31-3.33,7.42-4.14,9.06
			c-1.72,3.49-7.62,17.68-9.23,20.55c-0.89,1.58-1.43,3.21-2.14,4.82c-0.91,2.05-5.52,17.92-4.68,24.93
			c0.31,2.56-0.72,7.87-0.94,8.11c-6.45-1.64-6.03-17.72-6.38-18.1c-0.11-0.12-0.22-0.23-0.32-0.34c-0.25,0.06-0.47,0.04-0.54,0.14
			c-0.95,1.22-6.58,9.05-7.98,10.04C426.35,231.45,418.73,237.3,415.97,237.82z M413.8,232.4c18.44-9.12,27.37-41.02,28.09-42.38
			c0.87-3.1,1.3-4.75-0.77-6.82C420.92,175.24,395.76,234.54,413.8,232.4z"/>
		<path class="st0" d="M224.79,286.3c2.07,1.9,4.79,5.16,7.52,5.93c0.91,0.26,4.47-0.2,5.29,0.42
			c-6.89,10.36-49.88,26.51-52.44,27.35c-0.71,0.23-8.74,1.53-11.41,1.7c-2.22,0.14-4.4,0.69-6.65,0.47
			c-1.32-0.13-15.75-1.45-17.43-1.5c-0.11,0-0.22-0.19-0.33-0.29c-0.03-0.47,0.34-0.45,0.63-0.5c2.84-0.49,14.57-1.21,16.98-1.36
			c18.01-2.45,47.95-21.22,49.88-22.91C217.8,294.74,224.86,286.77,224.79,286.3z"/>
		<path class="st0" d="M315.05,300.67c1.94,1.06,3.91,2.06,5.97,2.89c2.52,1.02,5.1,0.63,7.71,1.27c0.96,0.24,4.91-0.08,5.39,0
			c-0.72,0.83-2.45,1.44-3.53,1.5c-5.41,2.02-33.37-2.11-35.77-3.35c-0.16-0.02-0.31-0.08-0.56-0.14c0.43-0.9,1.05-1.43,2.04-1.1
			c3.01,0.99,6.04,0.82,9.12,0.47c1.96-0.23,3.95-0.11,5.92-0.27C312.65,301.82,313.95,301.5,315.05,300.67z"/>
		<path class="st0" d="M345.91,289.78c1.47,2.83,3.34,5.33,6.03,7.1c-1.66,1.05-4.4,2.56-6.11,3.54c-2.04,1.17-4.36,1.86-6.57,2.73
			c-1.53,0.61-2.96,1.51-4.65,1.68c0.06-0.38-1.31-1.69-1.6-2.11c-0.62-0.89-3.5-3.7-3.49-4.37c1.58-1.38,4.95-1.91,6.86-2.43
			c1.77-0.48,3.24-1.49,4.89-2.17c1.06-0.44,1.87-1.43,2.85-2.1C344.54,291.36,345.8,290.27,345.91,289.78z"/>
		<path class="st0" d="M396.3,95.09c-0.06-0.18-0.23-0.43-0.18-0.59c1.4-4.14,2.65-8.35,5.16-12.01c0.13-0.2,0.22-0.43,0.37-0.61
			c0.96-1.18,2.5-1.13,3.12,0.23c0.46,0.99,0.77,2.09,0.73,3.23c-0.01,0.16,0,0.35-0.08,0.46c-1.46,2.05-2.27,4.56-4.4,6.12
			c-1.22,0.89-2.41,1.81-3.62,2.71C397.1,94.85,396.83,95.2,396.3,95.09z"/>
		<path class="st0" d="M240.53,287.37c-3.46-2.7-12.81-5.79-10.19-9.75c1.23-2.57,3.05-2.22,4.8-0.29c0.78,0.23,1.55,0.36,2.34,0.3
			c2.71-0.22,5.35,0.54,8.03,0.59c0.14,0,0.27,0.15,0.4,0.23C244.91,278.68,242.27,286.81,240.53,287.37z"/>
		<path class="st0" d="M363.41,287.79c-0.46-0.1-0.93-0.7-1.37-0.85c-2.01-0.67-3.48-1.96-5.59-2.32c-0.28-0.05-0.54-0.29-1.16-0.65
			c4.53-0.73,10.44-1.44,14.6-2.11c-1.03,1.37-2.44,2.19-3.15,2.96C365.99,285.63,363.89,286.74,363.41,287.79z"/>
		<path class="st0" d="M465.84,181.51"/>
		<path class="st0" d="M378.53,262.4"/>
	</g>
	<g>
		<path class="st0" d="M422.54,260.45c2.15-0.09,22.14,2.21,25.17-18.44c-0.52-0.27-12.04-2.13-17.94,0.69
			c-2.62,1.25-4.96,2.91-7.07,4.92c-1.31,1.25-5.17,6.1-5.79,8.68l-0.04,0.04c-0.26-0.08-8.44,4.09-11.52,5.31
			c6.41-8.5,1.64-17.43,0.71-17.77c-0.19,0.33-10.16,7.02-13.36,15.06c-0.61,1.54-2.46,6.95-1.47,9.05c-1.8,0.44-9,3.34-9.11,3.55
			c-0.45,0.15-10.07,3.36-12.4,4.03c11.84-8.27,10.9-24.96,10.27-25.62c-1.09-0.7-6.44,2.1-8.25,3.23c-1.39,0.87-3.4,2.5-4.76,3.41
			c-3.49,2.34-8.38,12.41-9.14,14.48c-0.18,0.49-0.25,1-0.4,1.49c-0.43,1.4-0.61,5.92-1.46,6.41c-0.42,0.02-25.58,2.97-25.77,3.13
			c-0.13-0.01-1.39,0.26-2.1,0.06c0.24-0.17,1.01-0.77,1.24-0.94c1.37-0.96,2.51-2.19,3.79-3.26c7.1-5.97,13.56-20.81,13.53-21.65
			c-1.3-0.07-30.75,3.13-26.16,26.01c-0.76,0.23-1.55,0.06-2.32,0.14c-0.04-0.11-24.7-1.24-25.98-1.31
			c-1.29-0.08-2.56-0.36-3.87-0.27c17.47-7.67,16.89-28.09,16.73-28.05c-0.31-0.02-7.68,1.53-12.06,4.36
			c-2.27,1.47-6.39,5.7-7.8,7.91c-1.49,2.33-2.85,4.78-3.69,7.46c-0.73,2.3-1.48,4.58-1.76,6.99c-1.69,0.24-3.36-0.1-4.96-0.45
			c-1.85-0.4-14.77-2.02-16.19-2.33c-1.55-0.34-3.14-0.34-4.71-0.45c-1.89-0.13-3.78-0.37-5.67-0.54c-1.07-0.1-2.14-0.14-3.21-0.26
			c5.87-1.31,26.76-7.24,25.51-25.04c0,0-17.48-10.6-30.69,24.09c-1.08-0.06-6.52-0.28-7.19-0.5c-0.14-0.05-12.35-0.96-15.49-0.7
			c-0.42,0.04-0.82,0.07-1.22-0.08c0.72-0.26,1.33-0.7,1.99-1c8.5-3.84,13.97-15.76,13.8-15.88c-2.92-1-17.14-2.83-32.95,15.62
			c-0.25,0.29-2.07,3.23-3.86,4.16c-1.61,0.84-3.95,2.04-6.73,2.95l0.33,2.14c3.45-1.23,7.79-2.53,12.21-3.34
			c2.02-0.37,4.09-0.51,6.13-0.72c1.05-0.11,2.12-0.11,3.16-0.16c0.14,0.28,0.25,0.52,0.36,0.75c2.4,16.9,34.97,16.23,35.06,15.92
			c-1.72-8.16-16.53-15.84-17.23-16.48c1.39,0.01,15.3,1.31,15.71,1.28c0.94-0.07,7.48,0.67,9.82,0.88c0.94,0.08,1.95-0.04,3,0.51
			c-5.07,22.21,28.12,27.45,28.47,27.33c0.26-0.21-3.08-17.56-16.52-24.21c-0.84-0.42-1.56-1.06-2.34-1.59
			c0.03-0.08,0.06-0.16,0.09-0.25c12.67,2.3,25.46,3.75,38.25,5.31c-0.06,3.52,4.86,9.81,5.72,10.99c1.16,1.58,5.11,4.27,5.5,4.51
			c0.89,0.54,4.22,2.06,4.99,2.32c5.21,1.76,14.31,1.01,14.55,0.7c-0.18-0.38-11.44-14.38-17.14-17.75
			c0.21-0.11,0.33-0.14,0.46-0.14c2.42-0.01,4.85,0.02,7.27-0.04c1.35-0.03,2.7-0.01,4.05-0.08c1.2-0.06,11.31-0.68,12.67-0.97
			c0.5-0.11,1.89,2.24,2.23,3.17c1.24,3.31,7.89,9.44,7.96,9.43c6.82,6.02,26.47,8.7,33.34,6.78c0,0-6.76-14.15-30.27-21.05
			c0.17-0.08,0.26-0.14,0.35-0.15c2.06-0.21,4.09-0.56,6.11-0.96c0.31-0.06,6.21-1.19,7.37-1.41c1.36-0.26,2.74-0.27,3.94,0.63
			c0.33,0.25,0.61,0.57,0.95,0.82c19.08,14.09,36.85,4.4,37.18,3.97c-0.68-1.41-1.81-2.4-2.93-3.34c-1.18-0.98-2.53-1.76-3.79-2.64
			c-2.46-1.72-11.39-4.57-11.62-4.64c-1.47-0.43-3-0.59-4.54-0.89c1.29-0.4,11.64-5.47,12.25-5.55
			c13.57,11.98,31.72,4.34,31.84,3.71c-0.91-0.59-9.01-9.4-20.25-9.3C413.05,264.25,419.72,260.57,422.54,260.45z M278.99,281.15
			c-0.01-0.02-0.02-0.06-0.04-0.08C278.96,281.1,278.97,281.13,278.99,281.15C278.99,281.15,278.99,281.15,278.99,281.15z
			 M349.96,280.74C349.96,280.74,349.96,280.74,349.96,280.74c0.01,0.02,0.03,0.06,0.04,0.08
			C349.99,280.79,349.97,280.76,349.96,280.74z M366.35,275.06c0.01-0.02,0.03-0.04,0.04-0.06c0,0,0,0,0,0
			C366.38,275.02,366.37,275.04,366.35,275.06z"/>
		<path class="st0" d="M412.61,291.86c-0.84,0-1.51,0.68-1.51,1.51s0.68,1.51,1.51,1.51s1.51-0.68,1.51-1.51
			S413.44,291.86,412.61,291.86z"/>
		<circle class="st0" cx="419.24" cy="286.13" r="1.71"/>
		<circle class="st0" cx="393.21" cy="246.28" r="1.71"/>
		<path class="st0" d="M357.59,256.5c0.9,0.28,1.86-0.22,2.14-1.12c0.28-0.9-0.22-1.86-1.12-2.14c-0.9-0.28-1.86,0.22-2.14,1.12
			C356.19,255.27,356.69,256.22,357.59,256.5z"/>
		<path class="st0" d="M353.89,262.04c0.84,0.26,1.74-0.21,2-1.05c0.26-0.84-0.21-1.74-1.05-2c-0.84-0.26-1.74,0.21-2,1.05
			C352.58,260.88,353.05,261.77,353.89,262.04z"/>
		<path class="st0" d="M340.92,298.65c-0.57,0.67-0.48,1.68,0.19,2.25c0.67,0.57,1.68,0.48,2.25-0.19c0.57-0.67,0.48-1.68-0.19-2.25
			C342.49,297.89,341.49,297.97,340.92,298.65z"/>
		<path class="st0" d="M348.57,302.98c-0.57,0.67-0.48,1.68,0.19,2.25c0.67,0.57,1.68,0.48,2.25-0.19c0.57-0.67,0.48-1.68-0.19-2.25
			C350.15,302.22,349.14,302.31,348.57,302.98z"/>
		<circle class="st0" cx="429.72" cy="231.25" r="1.71"/>
		<path class="st0" d="M425.23,234.58c0.61,0,1.11-0.5,1.11-1.11c0-0.61-0.5-1.11-1.11-1.11c-0.61,0-1.11,0.5-1.11,1.11
			C424.12,234.08,424.62,234.58,425.23,234.58z"/>
		<path class="st0" d="M298.43,299.1c-1.05,0-1.91,0.85-1.91,1.91s0.85,1.91,1.91,1.91c1.05,0,1.91-0.85,1.91-1.91
			S299.48,299.1,298.43,299.1z"/>
		<path class="st0" d="M253.9,305.34c-1.05,0-1.91,0.85-1.91,1.91c0,1.05,0.85,1.91,1.91,1.91c1.05,0,1.91-0.85,1.91-1.91
			C255.81,306.19,254.96,305.34,253.9,305.34z"/>
		<path class="st0" d="M262.35,301.89c-0.54,0-0.98,0.44-0.98,0.98c0,0.54,0.44,0.98,0.98,0.98c0.54,0,0.98-0.44,0.98-0.98
			C263.33,302.33,262.89,301.89,262.35,301.89z"/>
		<path class="st0" d="M273.74,266.24c1.21,0,2.19-0.98,2.19-2.19c0-1.21-0.98-2.19-2.19-2.19c-1.21,0-2.19,0.98-2.19,2.19
			C271.55,265.26,272.53,266.24,273.74,266.24z"/>
		<path class="st0" d="M240.91,254.36c1.03,0,1.87-0.84,1.87-1.87c0-1.03-0.84-1.87-1.87-1.87s-1.87,0.84-1.87,1.87
			C239.04,253.52,239.88,254.36,240.91,254.36z"/>
		<path class="st0" d="M282.37,261.87c0.64,0,1.16-0.52,1.16-1.16c0-0.64-0.52-1.16-1.16-1.16c-0.64,0-1.16,0.52-1.16,1.16
			C281.21,261.35,281.73,261.87,282.37,261.87z"/>
	</g>
</g>
</svg>
